<svg xmlns="http://www.w3.org/2000/svg" xmlns:xlink="http://www.w3.org/1999/xlink" width="54" height="13" viewBox="0 0 54 13">
  <defs>
    <polygon id="eayse-a" points=".288 .025 10.802 .025 10.802 10.377 .288 10.377"/>
    <polygon id="eayse-c" points=".326 .025 10.112 .025 10.112 7.807 .326 7.807"/>
    <polygon id="eayse-e" points=".256 .025 8.641 .025 8.641 6.413 .256 6.413"/>
    <polygon id="eayse-g" points="0 .025 9.787 .025 9.787 7.807 0 7.807"/>
    <polygon id="eayse-i" points=".429 .025 8.086 .025 8.086 4.547 .429 4.547"/>
  </defs>
  <g fill="none" fill-rule="evenodd">
    <path fill="#C6C5C6" d="M38.6476519,2.63675969 L38.6515037,2.63675969 C38.6457259,2.63675969 38.6409111,2.63675969 38.6356148,2.63675969 C37.2008,2.62672222 35.9561704,3.65901852 35.5473926,5.0037963 C35.5416148,4.99753704 35.5368,4.9907963 35.5315037,4.98501852 C35.5363185,4.99127778 35.5401704,4.9985 35.5449852,5.00475926 C35.7130222,5.22335185 35.927763,5.41353704 36.1887259,5.5757963 C36.408763,5.71542593 36.6119481,5.83194444 36.8030963,5.93112963 C36.9249111,5.99468519 37.0433556,6.05198148 37.1531333,6.09916667 C37.435763,6.21905556 37.8450222,6.3635 38.3799481,6.53201852 C38.5393185,6.58209259 38.7323926,6.64324074 38.8542074,6.68657407 L38.8580593,6.68801852 C39.1416519,6.78912963 39.3005407,6.87435185 39.6062815,7.0732037 C39.8932444,7.25953704 40.0304667,7.4762037 40.0304667,7.70394444 C40.0304667,7.93312963 39.9279111,8.11657407 39.723763,8.25427778 C39.5196148,8.39294444 39.242763,8.46227778 38.8941704,8.46227778 C37.7516148,8.46227778 36.6755037,8.07131481 35.665837,7.28938889 L34.4751333,8.98516667 C35.1000963,9.48975926 35.8035407,9.87157407 36.5854667,10.1301296 C37.3669111,10.3886852 38.1185037,10.5182037 38.839763,10.5182037 C39.9221333,10.5182037 40.8152815,10.2297963 41.5187259,9.65201852 C42.0469111,9.21916667 42.3762444,8.67894444 42.5081704,8.03231481 C42.5515037,7.81757407 42.5736519,7.5907963 42.5736519,7.35246296 C42.5736519,6.39672222 42.2370963,5.71446296 41.5639852,5.3052037 C41.3246889,5.16172222 41.1094667,5.04568519 40.9154296,4.95275926 C40.8167259,4.90509259 40.7218741,4.86175926 40.6347259,4.82757407 C40.4296148,4.74668519 40.111837,4.63690741 39.6842815,4.4992037 L38.0250963,3.8882037 C38.0202815,3.88531481 38.0149852,3.88290741 38.0101704,3.8805 C37.745837,3.73605556 37.6153556,3.53768519 37.6139111,3.28538889 C37.6105407,2.9237963 37.9938,2.6922037 38.6476519,2.63675969"/>
    <g transform="translate(22.63 .457)">
      <mask id="eayse-b" fill="#fff">
        <use xlink:href="#eayse-a"/>
      </mask>
      <path fill="#C6C5C6" d="M3.07536667,10.3748667 C4.81688519,10.4499778 6.44814444,8.82931111 7.78088519,6.83742222 L7.78136667,6.83694074 L10.8017,0.0249407407 L7.90173704,0.0249407407 L5.45677407,5.76227407 L3.18755185,0.0249407407 L0.287588889,0.0249407407 C2.79707037,6.35882963 3.95888519,8.64008889 4.07829259,8.90971852 C4.2887,9.33775556 4.08744074,9.85053333 3.8934037,10.0623852 C3.69936667,10.2737556 3.32862593,10.3878667 3.07536667,10.3748667" mask="url(#eayse-b)"/>
    </g>
    <path fill="#C6C5C6" d="M17.9578148,6.67068519 C17.9578148,7.16612963 17.7734074,7.56238889 17.4050741,7.8585 C17.0357778,8.15461111 16.5282963,8.30242593 16.0453704,8.30242593 C15.5614815,8.30242593 15.1897778,8.20853704 14.9302593,8.02124074 C14.6702593,7.83394444 14.5402593,7.5647963 14.5402593,7.21475926 C14.5402593,6.5377963 15.0843333,6.19931481 16.172,6.19931481 L17.9578148,6.19931481 L17.9578148,6.67068519 Z M20.6781852,7.20609259 L20.6781852,6.86905556 C19.8755556,4.79724074 19.0897778,2.94257407 16.7025926,2.78994444 C16.6900741,2.78898148 16.679963,2.78801852 16.6674444,2.78705556 C16.6635926,2.78657407 16.6592593,2.78657407 16.6549259,2.78609259 C16.6587778,2.78657407 16.6635926,2.78657407 16.6674444,2.78705556 C17.8307037,2.87757407 17.9582963,3.16598148 17.9582963,4.20501852 L17.9582963,4.25942593 L17.8942593,4.25942593 L15.8638519,4.25942593 C14.6067037,4.25942593 13.6158148,4.50738889 12.8907037,5.00283333 C12.1655926,5.49827778 11.803037,6.24457407 11.803037,7.2422037 C11.803037,8.23887037 12.1535556,9.03668519 12.8545926,9.63468519 C13.5551481,10.2331667 14.4227778,10.5326481 15.456037,10.5326481 C16.5913704,10.5326481 17.3925556,10.3077963 17.9582963,9.9072037 L17.9582963,10.3872407 L18.122,10.3872407 L20.6781852,10.3872407 L20.6781852,7.47283333 C20.6762593,7.46657407 20.6767407,7.34187037 20.6781852,7.20609259 L20.6781852,7.20609259 Z"/>
    <g transform="translate(43.815 .457)">
      <mask id="eayse-d" fill="#fff">
        <use xlink:href="#eayse-c"/>
      </mask>
      <path fill="#C6C5C6" d="M3.08056667,4.08455185 C3.15278889,3.52892222 3.41278889,3.08788519 3.86008519,2.76144074 C4.3069,2.43547778 4.79897407,2.27225556 5.33727037,2.27225556 C5.8746037,2.27225556 6.33056667,2.42921852 6.70515926,2.74314444 C7.07975185,3.05755185 7.29738148,3.50436667 7.35804815,4.08455185 L3.08056667,4.08455185 Z M10.1121222,4.57421852 C10.1121222,3.16058889 9.64412222,2.04884815 8.70812222,1.2389963 C7.77164074,0.429625926 6.63293704,0.0247 5.29201111,0.0247 C3.9506037,0.0247 2.78782593,0.477774074 1.8031963,1.3844037 C1.12575185,2.00744074 0.681825926,2.77877407 0.469974074,3.69888519 C0.374159259,4.11681111 0.32552963,4.56555185 0.32552963,5.04510741 L0.352974074,5.08988519 C0.572048148,5.3859963 2.2191963,7.40918148 4.85386296,7.80688519 C4.48456667,7.73273704 4.19134444,7.57962593 3.84178889,7.32829259 C3.3709,6.99029259 3.0926037,6.55551481 3.00834444,6.02395926 L10.1121222,6.02395926 L10.1121222,4.57421852 Z" mask="url(#eayse-d)"/>
    </g>
    <path fill="#4A4E64" d="M28.8007778,10.9268852 L30.4113333,7.29362593 L30.4108519,7.29410741 C29.0776296,9.2859963 27.4463704,10.906663 25.7048519,10.8315519 L25.661037,10.8305889 C25.6340741,10.8291444 25.6071111,10.8262556 25.5796667,10.8228852 C25.5724444,10.8224037 25.5652222,10.8209593 25.558,10.8199963 C25.414037,10.8002556 25.2691111,10.7545148 25.1241852,10.6822926 L25.1092593,10.6755519 C24.8025556,10.5185889 24.4972963,10.2460704 24.2011852,9.85895926 L22.9204444,10.8999222 L22.424037,11.3034037 C22.4885556,11.3799593 22.5535556,11.452663 22.619037,11.5224778 C22.6397407,11.5446259 22.6609259,11.5658111 22.6816296,11.5874778 C22.7268889,11.634663 22.7721481,11.6804037 22.8178889,11.7242185 C22.8424444,11.7473296 22.866037,11.7699593 22.8901111,11.7925889 C22.9344074,11.8335148 22.9791852,11.8734778 23.023963,11.9119963 C23.0470741,11.931737 23.0701852,11.9519593 23.0932963,11.9712185 C23.1457778,12.0150333 23.1982593,12.0564407 23.2512222,12.0968852 C23.2661481,12.1079593 23.2805926,12.1199963 23.295037,12.1305889 C23.3624444,12.180663 23.4293704,12.2273667 23.4967778,12.2721444 C23.516037,12.284663 23.5352963,12.2967 23.5545556,12.308737 C23.6036667,12.3405148 23.6522963,12.3703667 23.7004444,12.3992556 C23.7254815,12.4137 23.7505185,12.427663 23.7755556,12.4416259 C23.8193704,12.4661815 23.8631852,12.4897741 23.907,12.5124037 C23.932037,12.5249222 23.9570741,12.5384037 23.9825926,12.5504407 C24.0288148,12.5735519 24.075037,12.594737 24.1207778,12.6154407 C24.1424444,12.6245889 24.1636296,12.6351815 24.1848148,12.6438481 C24.2502963,12.6722556 24.3157778,12.6982556 24.3807778,12.7223296 C24.3961852,12.7276259 24.4111111,12.7324407 24.4265185,12.7382185 C24.4775556,12.7560333 24.5276296,12.7733667 24.5781852,12.7887741 C24.6032222,12.7969593 24.6282593,12.8032185 24.6532963,12.8109222 C24.6937407,12.8229593 24.7337037,12.8340333 24.7741481,12.8441444 C24.8001481,12.8508852 24.8266296,12.8576259 24.8526296,12.8634037 C24.8916296,12.8730333 24.9306296,12.8817 24.9696296,12.8894037 C24.9941852,12.8947 25.0192222,12.9004778 25.0437778,12.9043296 C25.0895185,12.9134778 25.1352593,12.9211815 25.1805185,12.9274407 C25.1964074,12.9298481 25.2122963,12.9332185 25.2281852,12.9356259 L25.2301111,12.9356259 C25.2951111,12.9442926 25.3591481,12.9519963 25.4217407,12.9582556 C25.4304074,12.958737 25.4390741,12.9592185 25.4477407,12.9597 C25.4607407,12.960663 25.4732593,12.9616259 25.4862593,12.9625889 C25.5276667,12.9654778 25.5695556,12.9688481 25.6104815,12.9707741 C25.6292593,12.971737 25.6475556,12.971737 25.6663333,12.9722185 C25.7087037,12.973663 25.7510741,12.9751074 25.792,12.9751074 C26.0158889,12.9751074 26.221,12.9597 26.4155185,12.9279222 C26.8204444,12.8629222 27.1801111,12.724737 27.559037,12.4762926 C28.1209259,12.1074778 28.5345185,11.5908481 28.8007778,10.9268852"/>
    <g transform="translate(12.037 .457)">
      <mask id="eayse-f" fill="#fff">
        <use xlink:href="#eayse-e"/>
      </mask>
      <path fill="#4A4E64" d="M4.66536296,2.33354815 C7.05254815,2.4856963 7.83832593,4.34036296 8.64095556,6.41265926 L8.64095556,3.71202963 C8.64095556,3.6321037 8.63951111,3.55314074 8.6371037,3.47514074 C8.63662222,3.45684444 8.63517778,3.43902963 8.63421481,3.42121481 C8.63180741,3.36151111 8.6294,3.30228889 8.62554815,3.24402963 C8.62314074,3.21177037 8.61928889,3.17999259 8.61688148,3.14773333 C8.61302963,3.10536296 8.61014074,3.06202963 8.60532593,3.01965926 C8.59906667,2.96332593 8.59136296,2.90795556 8.58365926,2.85306667 C8.58125185,2.83621481 8.57980741,2.81888148 8.5774,2.80251111 C8.56728889,2.73799259 8.55621481,2.67491852 8.54417778,2.61280741 C8.54273333,2.60558519 8.54177037,2.59884444 8.54032593,2.5921037 C8.3901037,1.83425185 8.06462222,1.22999259 7.5191037,0.867918519 C7.07854815,0.593474074 6.59706667,0.386437037 6.07514074,0.245844444 C6.05636296,0.240548148 6.03758519,0.235733333 6.01832593,0.230918519 L6.01784444,0.230918519 C5.94995556,0.213585185 5.88158519,0.197696296 5.81273333,0.18277037 C5.72317778,0.16302963 5.63217778,0.146177778 5.5406963,0.129807407 C5.52432593,0.126918519 5.50795556,0.124511111 5.49158519,0.121622222 C5.39962222,0.106214815 5.30717778,0.0922518519 5.21377037,0.0806962963 C5.20221481,0.0792518519 5.19065926,0.0778074074 5.17862222,0.076362963 C5.09677037,0.0667333333 5.01347407,0.0585481481 4.93017778,0.0513259259 C4.8646963,0.0460296296 4.79873333,0.0407333333 4.73228889,0.0368814815 C4.72458519,0.0364 4.71688148,0.0364 4.70917778,0.0364 C4.67932593,0.0344740741 4.64947407,0.0335111111 4.61962222,0.0320666667 C4.51851111,0.0282148148 4.41691852,0.0248444444 4.31388148,0.0248444444 C4.20891852,0.0248444444 4.10588148,0.0272518519 4.00428889,0.0315851852 C3.98791852,0.0320666667 3.97251111,0.0339925926 3.95614074,0.0344740741 C3.87091852,0.0388074074 3.7856963,0.0441037037 3.7024,0.0513259259 C3.6894,0.0522888889 3.6764,0.0546962963 3.66291852,0.0556592593 C3.5776963,0.0638444444 3.49247407,0.0725111111 3.40965926,0.0835851852 C3.40628889,0.0840666667 3.40291852,0.0850296296 3.40002963,0.0855111111 C3.39088148,0.0864740741 3.38125185,0.0879185185 3.3721037,0.089362963 C3.28928889,0.100918519 3.20695556,0.113437037 3.12606667,0.127881481 C3.12173333,0.128844444 3.11788148,0.129807407 3.11354815,0.13077037 C3.10054815,0.133177778 3.08754815,0.136066667 3.07454815,0.138474074 C2.99991852,0.152437037 2.92577037,0.167362963 2.85258519,0.183733333 C2.8236963,0.190474074 2.79528889,0.198177778 2.7664,0.2054 C2.70717778,0.219362963 2.64795556,0.233807407 2.5896963,0.249696296 C2.53962222,0.263659259 2.48954815,0.279066667 2.43995556,0.294474074 C2.40577037,0.304585185 2.3711037,0.314214815 2.3374,0.325288889 C2.31814074,0.331548148 2.29984444,0.338288889 2.28058519,0.34502963 C2.21799259,0.365733333 2.1554,0.386918519 2.09328889,0.409548148 L2.09328889,0.409548148 L2.09232593,0.41002963 C2.00951111,0.440844444 1.92765926,0.473585185 1.84677037,0.50777037 C1.80680741,0.524622222 1.76732593,0.5434 1.72784444,0.560733333 C1.68691852,0.57902963 1.64599259,0.596844444 1.60602963,0.615622222 C1.54777037,0.643548148 1.49047407,0.672918519 1.43317778,0.702288889 C1.41247407,0.7124 1.39177037,0.722511111 1.37106667,0.733103704 C1.30414074,0.768733333 1.2376963,0.805325926 1.17173333,0.843362963 C1.16162222,0.849140741 1.15151111,0.854437037 1.1414,0.859733333 C1.06773333,0.902585185 0.99502963,0.9464 0.923288889,0.991659259 C0.920881481,0.993103704 0.918474074,0.994548148 0.916066667,0.995992593 C0.693140741,1.13658519 0.476474074,1.29017778 0.265585185,1.45628889 C0.262214815,1.4586963 0.259325926,1.4611037 0.256437037,1.46351111 L0.709992593,2.03984444 L1.67680741,3.26906667 C1.72447407,3.23247407 1.77262222,3.19636296 1.82125185,3.16073333 C1.94306667,3.07117778 2.06728889,2.9874 2.19536296,2.91036296 C2.22906667,2.88965926 2.26373333,2.86943704 2.29888148,2.84921481 C2.32488148,2.83477037 2.3504,2.81984444 2.37688148,2.80588148 C2.55214074,2.71054815 2.74184444,2.62291852 2.95465926,2.54684444 C2.95562222,2.54636296 2.95658519,2.54636296 2.95754815,2.54588148 L2.95995556,2.54491852 C2.95995556,2.54491852 2.96043704,2.54491852 2.96091852,2.54491852 C3.03651111,2.51795556 3.11547407,2.49436296 3.19636296,2.47317778 C3.25173333,2.45728889 3.30902963,2.44380741 3.36584444,2.43032593 C3.37065926,2.42936296 3.37499259,2.4284 3.37980741,2.42743704 C3.57865926,2.38217778 3.78665926,2.35136296 4.00380741,2.33595556 C4.09817778,2.32825185 4.19014074,2.32391852 4.27921481,2.32199259 C4.29077037,2.32199259 4.30184444,2.32151111 4.31388148,2.32151111 C4.32206667,2.32151111 4.32977037,2.32199259 4.33795556,2.32199259 L4.33795556,2.32199259 C4.41114074,2.32151111 4.48095556,2.32295556 4.54788148,2.32632593 L4.54788148,2.32632593 C4.55558519,2.32632593 4.56328889,2.32680741 4.57051111,2.32728889 C4.58591852,2.32825185 4.60277037,2.32825185 4.61817778,2.3296963 C4.62202963,2.3296963 4.62636296,2.3296963 4.63021481,2.33017778 C4.64273333,2.33114074 4.65332593,2.33258519 4.66536296,2.33354815" mask="url(#eayse-f)"/>
    </g>
    <path fill="#4A4E64" d="M44.1677407,5.54666667 L44.1402963,5.50188889 C44.1402963,5.50574074 44.1407778,5.50959259 44.1407778,5.51344444 L44.1407778,5.51392593 C44.1412593,5.7667037 44.1557037,6.01081481 44.1826667,6.24674074 C44.1918148,6.32522222 44.2019259,6.40322222 44.2144444,6.48025926 C44.2158889,6.49085185 44.2178148,6.50144444 44.2192593,6.51203704 C44.3584074,7.37918519 44.6684815,8.10525926 45.2428889,8.77885185 C45.3777037,8.9362963 45.526,9.09085185 45.6901852,9.24348148 C45.7450741,9.295 45.8009259,9.34411111 45.8572593,9.39177778 C45.9704074,9.48711111 46.0878889,9.57618519 46.2082593,9.65851852 C46.2944444,9.71725926 46.383037,9.77118519 46.4725926,9.82366667 C46.5419259,9.86362963 46.6117407,9.90214815 46.6834815,9.93922222 C47.2174444,10.2136667 47.8144815,10.387 48.4721852,10.4741481 C48.6551481,10.4982222 48.841963,10.5165185 49.0335926,10.5271111 C49.127963,10.5328889 49.2213704,10.5357778 49.3138148,10.5367407 C49.3465556,10.5367407 49.3778519,10.5357778 49.4101111,10.5357778 C49.4702963,10.5352963 49.5304815,10.5348148 49.5901852,10.5324074 C49.6296667,10.530963 49.6686667,10.5275926 49.7081481,10.5251852 C49.7591852,10.5222963 49.8111852,10.5198889 49.8617407,10.5150741 C49.9050741,10.5112222 49.9479259,10.5064074 49.9907778,10.5020741 C50.037,10.4967778 50.0837037,10.4914815 50.1304074,10.4847407 C50.1761481,10.478963 50.2214074,10.4717407 50.2666667,10.4645185 C50.3095185,10.4577778 50.3523704,10.4505556 50.3952222,10.4423704 C50.4428889,10.4341852 50.491037,10.4240741 50.5387037,10.4144444 C50.5777037,10.4062593 50.6171852,10.3975926 50.6561852,10.3884444 C50.7067407,10.3768889 50.7572963,10.3643704 50.8078519,10.3518519 C50.8425185,10.3422222 50.8781481,10.3330741 50.9128148,10.322963 C50.9667407,10.308037 51.0206667,10.2931111 51.0745926,10.2767407 C51.103963,10.2675926 51.1333333,10.257963 51.1622222,10.2483333 C51.2214444,10.2290741 51.2806667,10.2102963 51.3398889,10.1891111 C51.3601111,10.1818889 51.3798519,10.1746667 51.4000741,10.166963 C51.9687037,9.95992593 52.5334815,9.67007407 53.1112593,9.30559259 L53.1117407,9.30511111 C53.2364444,9.22711111 53.3611481,9.14622222 53.4868148,9.061 C53.4872963,9.06051852 53.4882593,9.06003704 53.4887407,9.05955556 L53.4906667,9.05811111 L52.1314444,7.20585185 C51.2074815,7.8 50.4674444,8.30651852 49.322963,8.31759259 C49.2464074,8.31855556 49.1684074,8.31711111 49.0884815,8.31374074 C48.9348889,8.30603704 48.7971852,8.28966667 48.6686296,8.26366667 C46.033963,7.86596296 44.3868148,5.8422963 44.1677407,5.54666667"/>
    <g transform="translate(0 .457)">
      <mask id="eayse-h" fill="#fff">
        <use xlink:href="#eayse-g"/>
      </mask>
      <path fill="#C6C5C6" d="M2.7547,4.08455185 C2.8274037,3.52892222 3.08692222,3.08788519 3.53421852,2.76144074 C3.98103333,2.43547778 4.47358889,2.27225556 5.0114037,2.27225556 C5.54873704,2.27225556 6.0047,2.42921852 6.37929259,2.74314444 C6.75388519,3.05755185 6.97103333,3.50436667 7.0317,4.08455185 L2.7547,4.08455185 Z M9.78673704,4.57421852 C9.78673704,3.16058889 9.31825556,2.04884815 8.38225556,1.2389963 C7.44577407,0.429625926 6.30707037,0.0247 4.96566296,0.0247 C3.62473704,0.0247 2.46195926,0.477774074 1.47732963,1.3844037 C0.799885185,2.00744074 0.355959259,2.77877407 0.144107407,3.69888519 C0.0478111111,4.11681111 0.000144444444,4.56555185 0.000144444444,5.04510741 L0.0271074074,5.08988519 C0.246181481,5.3859963 1.89332963,7.40918148 4.5279963,7.80688519 C4.1587,7.73273704 3.8649963,7.57962593 3.51592222,7.32829259 C3.04503333,6.99029259 2.76673704,6.55551481 2.68247778,6.02395926 L9.78673704,6.02395926 L9.78673704,4.57421852 Z" mask="url(#eayse-h)"/>
    </g>
    <path fill="#4A4E64" d="M0.0271074074,5.54666667 L0.000144444444,5.50188889 C0.000144444444,5.50574074 0.000144444444,5.50959259 0.000144444444,5.51344444 L0.000144444444,5.51392593 C0.000625925926,5.7667037 0.0150703704,6.01081481 0.0420333333,6.24674074 C0.0511814815,6.32522222 0.0612925926,6.40322222 0.0733296296,6.48025926 C0.0752555556,6.49085185 0.0771814815,6.50144444 0.0786259259,6.51203704 C0.217774074,7.37918519 0.527848148,8.10525926 1.10225556,8.77885185 C1.23658889,8.9362963 1.38536667,9.09085185 1.54955185,9.24348148 C1.60444074,9.295 1.66029259,9.34411111 1.71662593,9.39177778 C1.83025556,9.48711111 1.94725556,9.57618519 2.06810741,9.65851852 C2.15381111,9.71725926 2.2424037,9.77118519 2.33195926,9.82366667 C2.40129259,9.86362963 2.47110741,9.90214815 2.54236667,9.93922222 C3.07681111,10.2136667 3.67432963,10.387 4.33155185,10.4741481 C4.51451481,10.4982222 4.70132963,10.5165185 4.89344074,10.5271111 C4.98732963,10.5328889 5.08073704,10.5357778 5.17366296,10.5367407 C5.20544074,10.5367407 5.23721852,10.5357778 5.26947778,10.5357778 C5.32966296,10.5352963 5.38984815,10.5348148 5.44955185,10.5324074 C5.48903333,10.530963 5.52803333,10.5275926 5.56703333,10.5251852 C5.61855185,10.5222963 5.67007037,10.5198889 5.72110741,10.5150741 C5.76444074,10.5112222 5.80681111,10.5064074 5.85014444,10.5020741 C5.89636667,10.4967778 5.94307037,10.4914815 5.98977407,10.4847407 C6.03551481,10.478963 6.08077407,10.4717407 6.12603333,10.4645185 C6.16888519,10.4577778 6.21173704,10.4505556 6.25458889,10.4423704 C6.30225556,10.4341852 6.3504037,10.4240741 6.39807037,10.4144444 C6.43707037,10.4062593 6.47655185,10.3975926 6.51555185,10.3884444 C6.56610741,10.3768889 6.61666296,10.3643704 6.66721852,10.3518519 C6.70188519,10.3422222 6.73703333,10.3330741 6.7717,10.322963 C6.82610741,10.308037 6.88003333,10.2931111 6.93395926,10.2767407 C6.96332963,10.2675926 6.99221852,10.257963 7.02158889,10.2483333 C7.08081111,10.2290741 7.14003333,10.2102963 7.19925556,10.1891111 C7.21947778,10.1818889 7.23921852,10.1746667 7.25944074,10.166963 C7.82807037,9.95992593 8.39284815,9.67007407 8.97062593,9.30559259 L8.97110741,9.30511111 C9.09532963,9.22711111 9.22051481,9.14622222 9.34618148,9.061 L9.34858889,9.05955556 L9.35003333,9.05811111 L7.99081111,7.20585185 C7.06684815,7.8 6.32681111,8.30651852 5.18232963,8.31759259 C5.10577407,8.31855556 5.02777407,8.31711111 4.94784815,8.31374074 C4.79473704,8.30603704 4.65703333,8.28966667 4.5279963,8.26366667 C1.89332963,7.86596296 0.246181481,5.8422963 0.0271074074,5.54666667"/>
    <g transform="translate(34.667 .457)">
      <mask id="eayse-j" fill="#fff">
        <use xlink:href="#eayse-i"/>
      </mask>
      <path fill="#4A4E64" d="M3.96875556,2.18048519 C3.97453333,2.18048519 3.97886667,2.18048519 3.98464444,2.18048519 C4.04194074,2.1800037 4.0949037,2.1775963 4.14305185,2.1723 C4.18638519,2.17085556 4.22875556,2.16941111 4.2744963,2.16989259 C4.2822,2.16989259 4.28942222,2.16941111 4.29712593,2.16941111 C4.3082,2.16941111 4.31927407,2.16989259 4.32986667,2.16989259 C4.3472,2.17037407 4.36405185,2.17037407 4.38138519,2.17085556 C4.81134815,2.17952222 5.20182963,2.25174444 5.5614963,2.37837407 C5.56294074,2.37885556 5.56438519,2.37933704 5.56582963,2.37981852 C5.57305185,2.38222593 5.57979259,2.38511481 5.58653333,2.3880037 C5.63901481,2.4063 5.69053333,2.42652222 5.74157037,2.44722593 C5.74494074,2.44867037 5.74831111,2.45011481 5.75168148,2.45155926 C5.80512593,2.47370741 5.85760741,2.49681852 5.90960741,2.52137407 L5.91682963,2.52474444 C6.21294074,2.66485556 6.48931111,2.84155926 6.7522,3.0485963 C6.75460741,3.05052222 6.75701481,3.05244815 6.75942222,3.05389259 L8.0859037,1.36822593 C8.08301481,1.36581852 8.08012593,1.36389259 8.07723704,1.36148519 C7.55097778,0.948374074 6.99005185,0.614707407 6.37038519,0.384559259 C6.29527407,0.356151852 6.21968148,0.330151852 6.14312593,0.305114815 C6.11086667,0.295003704 6.07860741,0.285855556 6.04682963,0.276225926 C6.00060741,0.262262963 5.9539037,0.247818519 5.90671852,0.234818519 C5.87638519,0.226151852 5.84460741,0.21892963 5.81379259,0.211707407 C5.78682963,0.204485185 5.75986667,0.197744444 5.73242222,0.191003704 C5.70882963,0.184744444 5.68523704,0.178485185 5.66164444,0.173188889 C5.62986667,0.165966667 5.59760741,0.160188889 5.56534815,0.15392963 C5.3689037,0.111559259 5.16331111,0.0797814815 4.94808889,0.0585962963 C4.93364444,0.0566703704 4.9192,0.0547444444 4.90427407,0.0537814815 C4.89223704,0.052337037 4.88068148,0.0508925926 4.86768148,0.0494481481 C4.84697778,0.0475222222 4.82579259,0.0470407407 4.80508889,0.0455962963 C4.7502,0.041262963 4.69579259,0.0374111111 4.63945926,0.0345222222 C4.63657037,0.0345222222 4.63368148,0.0340407407 4.63079259,0.0340407407 C4.61586667,0.0335592593 4.60094074,0.0316333333 4.58601481,0.0311518519 C4.50464444,0.0277814815 4.42231111,0.026337037 4.3394963,0.0258555556 C4.32842222,0.0258555556 4.31879259,0.0248925926 4.3082,0.0248925926 C4.30627407,0.0248925926 4.30482963,0.0248925926 4.3029037,0.0248925926 C4.30097778,0.0248925926 4.29953333,0.0248925926 4.29712593,0.0248925926 C4.20034815,0.0248925926 4.10597778,0.0277814815 4.01160741,0.0316333333 C3.97694074,0.0330777778 3.94131111,0.0340407407 3.90664444,0.0364481481 L3.90664444,0.0388555556 C3.90375556,0.0388555556 3.90134815,0.0388555556 3.89894074,0.039337037 C3.88931111,0.0398185185 3.8792,0.0407814815 3.86957037,0.0417444444 C2.9249037,0.113003704 2.13671852,0.417781481 1.51079259,0.908411111 C0.990311111,1.31622593 0.659051852,1.80974444 0.514125926,2.38944815 C0.458274074,2.61285556 0.428903704,2.84878148 0.428903704,3.09770741 C0.428903704,3.12226296 0.429385185,3.14778148 0.430348148,3.17378148 C0.431311111,3.19063333 0.432274074,3.20844815 0.433237037,3.22578148 C0.433718519,3.23589259 0.4342,3.24552222 0.434681481,3.25563333 C0.436125926,3.2773 0.438051852,3.29944815 0.440459259,3.32207778 C0.440940741,3.32881852 0.441422222,3.33555926 0.441903704,3.3423 C0.444792593,3.37118889 0.448162963,3.40055926 0.451533333,3.43089259 L0.452014815,3.43233704 C0.4992,3.80163333 0.623903704,4.24892963 0.865125926,4.52818889 L0.865125926,4.52818889 C0.869940741,4.53444815 0.874755556,4.54118889 0.880533333,4.54696667 C1.28979259,3.20267037 2.53442222,2.16989259 3.96875556,2.18048519" mask="url(#eayse-j)"/>
    </g>
  </g>
</svg>
