<svg xmlns="http://www.w3.org/2000/svg" xmlns:xlink="http://www.w3.org/1999/xlink" width="40" height="40" viewBox="0 0 40 40">
  <defs>
    <circle id="user-a" cx="20" cy="20" r="20"/>
  </defs>
  <g fill="none" fill-rule="evenodd">
    <mask id="user-b" fill="#fff">
      <use xlink:href="#user-a"/>
    </mask>
    <use fill="#0014C4" xlink:href="#user-a"/>
    <path fill="#FFF" d="M35.8183607,38.3063106 C35.6116368,37.2581375 35.2256418,36.4522448 34.6603758,35.8869788 C33.9578451,35.0746364 31.2849457,33.7712832 26.6403133,31.9802269 C25.1512393,31.2905957 24.4067436,30.5057062 24.4067436,29.6239045 L24.3453714,28.6096755 C25.5308092,27.3967847 26.3238023,26.0062353 26.7226969,24.4346785 C27.3428687,24.1730445 27.7224139,23.6416854 27.8596786,22.8422425 C28.6445681,21.2579101 28.5073034,20.1758342 27.4462307,19.5976273 C28.2731265,16.7713388 28.1762144,14.66354 27.1571397,13.2714609 L23.7251913,8.62017187 C23.7251913,9.37760844 23.5604571,9.68124458 23.2293845,9.52942651 C23.4086514,9.06107272 23.4086514,8.72353384 23.2293845,8.51680989 C23.0081237,9.04006956 22.6431154,9.34370571 22.1327966,9.42606453 L22.5882509,8.68152753 C22.2991598,9.10952881 21.8582672,9.32915234 21.2655483,9.34370571 C21.0992017,9.13698175 21.1476495,8.82044603 21.4092876,8.39244476 C21.0927395,8.58463188 20.8246309,8.83334561 20.6033949,9.13698175 C20.2868509,9.08207174 20.1689439,8.73645409 20.2529317,8.10336198 C19.9896811,8.40698985 19.7151186,8.73643342 19.4260359,9.09497545 C18.8737108,9.05459812 18.8527076,8.68798559 19.3630512,8 C18.7428793,8.15181394 18.3923995,8.46190401 18.3084283,8.9302578 C18.0887841,8.79136411 17.957965,8.5103601 17.9159753,8.08235882 C17.2279566,8.95126095 16.3590958,9.83951244 15.3109227,10.7487671 L13.1613243,12.7126447 C12.2665817,13.6784176 11.8386217,14.9106991 11.8805867,16.4126727 C11.920964,17.9017467 12.1212258,18.9628194 12.4797554,19.5975033 C11.4315823,20.272581 11.2733144,21.3675565 12.0033394,22.8840834 C12.169686,23.7658851 12.5686054,24.2406887 13.2032893,24.3101479 C13.657131,25.9913925 14.4920891,27.4255606 15.7049799,28.6091793 C15.8277243,29.9609473 15.3254471,30.9396612 14.1949441,31.545321 C13.4375075,31.9587689 12.5557058,32.3447639 11.549539,32.7033059 L8.77976872,33.8192845 C6.87724681,34.6736333 5.6304533,35.4940793 5.03773437,36.2789688 C4.27868535,37.4095008 3.98311144,38.6498445 4.14787043,40 L35.7977214,40 C35.9220783,39.4218344 35.9285405,38.8565685 35.8187163,38.3058145 L35.8183607,38.3063106 Z" mask="url(#user-b)"/>
  </g>
</svg>
